<?xml version="1.0" encoding="utf-8"?>
<!-- Generator: Adobe Illustrator 16.0.0, SVG Export Plug-In . SVG Version: 6.00 Build 0)  -->
<!DOCTYPE svg PUBLIC "-//W3C//DTD SVG 1.1//EN" "http://www.w3.org/Graphics/SVG/1.1/DTD/svg11.dtd">
<svg version="1.1" id="Layer_1" xmlns="http://www.w3.org/2000/svg" xmlns:xlink="http://www.w3.org/1999/xlink" x="0px" y="0px"
	 width="108px" height="43px" viewBox="0 0 108 43" enable-background="new 0 0 108 43" xml:space="preserve">
<g opacity="0.95">
	<path fill-rule="evenodd" clip-rule="evenodd" fill="#333333" d="M3.888,29.59c0.64,0.305,0.974,1.057,1.154,0.875
		c0.173-0.175,0.414-0.807,1.268-1.663c1.786-1.794,5.156-4.393,9.077-4.522c4.677-0.155,8.287,4.299,8.735,6.802
		c0.057-0.026,2.333-2.295,2.724-2.655c2.026-1.867,6.345-4.455,9.561-4.24c0.664,0.044,1.554,0.406,2.25,1.158
		c0.89,0.962,1.56,2.43,2.071,3.254c0.531,0.861,0.52,0.799,1.478,0.677c2.516-0.322,10.277-1.495,10.381-1.671l0.256-0.436
		c0.007-0.012-0.924-4.711-0.805-8.802c0.087-3.036,0.793-5.354,1.976-7.445c3.766-6.655,11.377-9.229,18.648-8.975
		c4.91,0.171,9.527,1.709,11.896,4.777c0.244,0.316,0.619,0.772,0.779,1.03c0.408,0.656,0.771,1.325,0.655,2.1
		c-0.071,0.472-0.325,1.091-0.553,1.46c-0.165,0.268-0.491,0.671-0.681,0.796c-0.209,0.137-0.382-0.327-0.68-0.74
		c-0.373-0.516-1.145-1.297-1.367-1.514c-0.842-0.816-1.744-1.384-2.859-1.965c-2.48-1.293-4.947-2.146-7.929-2.241
		c-3.354-0.105-6.729,0.555-9.575,2.425c-2.488,1.635-4.849,5.54-5.229,8.489c-0.223,1.723-0.219,4.062-0.195,5.964
		c0.03,2.43,0.167,4.266,0.707,4.466c0.09,0.033,8.528-1.264,14.456-1.993c6.917-0.85,14.082-1.207,21.042-1.333
		c1.781-0.032,3.174-0.123,4.676-0.1c0.664,0.01,1.112,0.123,1.328,0.267c0.227,0.152,0.189,0.356-0.424,1.149
		c-0.276,0.356-1.371,0.276-1.443,0.466l-0.26,0.861c-0.022,0.071-10.328,0.781-11.424,0.887c-6.715,0.649-13.611,1.57-20.255,2.792
		c-3.503,0.644-5.974,1.269-6.22,1.762c-0.512,1.025,1.633,4.021,2.172,4.866c0.852,1.334,1.371,2.509,1.081,3.366
		c-1.579,4.663-7.913-8.113-8.648-8.19c-1.739-0.184-8.496,1.359-10.377,2.037c-1.976,0.714-1.255,1.492-1.505,2.973
		c-0.804,4.769-5.943,4.43-5.981,1.691c-0.011-0.735,0.281-1.515,0.515-2.4c0.333-1.252,0.636-2.605,0.546-3.396
		c-0.134-1.178-0.917-3.199-1.933-4.225c-0.666-0.671-1.609-0.763-2.522-0.503c-0.873,0.249-1.802,0.837-2.577,1.567
		c-1.817,1.711-3.333,4.465-4.298,6.205c-0.906,1.633-1.389,3.368-2.437,4.371c-0.959,0.918-1.708,1.093-3.062,0.866
		c-0.564-0.095-1.315-0.237-1.641-0.718c-0.813-1.199-0.195-2.244,0.405-3.752c0.381-0.954,0.772-2.289,0.681-3.309
		c-0.116-1.3-1.611-3.57-2.708-4.424c-0.923-0.719-1.937-0.899-2.805-0.883c-1.5,0.029-2.919,0.74-3.957,1.953
		c-0.901,1.054-2.144,4.137-2.648,5.459c-0.185,0.488-0.412,0.984-0.669,1.468c-0.774,1.449-1.481,2.708-2.59,3.394
		c-0.862,0.533-1.018,0.349-1.304,0.014c-0.989-1.154-1.438-8.421-1.034-9.738C2.071,29.607,3.26,29.289,3.888,29.59z"/>
	
		<path fill-rule="evenodd" clip-rule="evenodd" fill="#BED22F" stroke="#BED22F" stroke-width="0.1417" stroke-miterlimit="22.9256" d="
		M105.628,23.041c1.02,1.041,0.714,1.877-0.204,2.732c-0.435,0.404-1.095,0.794-1.825,0.969c-1.332,0.318-3.043,0.014-3.535-0.66
		c-0.29-0.396-0.037-0.988,0.35-1.539c0.504-0.72,1.43-1.458,2.223-1.893C103.669,22.083,104.622,22.016,105.628,23.041z"/>
</g>
<g>
</g>
<g>
</g>
<g>
</g>
<g>
</g>
<g>
</g>
<g>
</g>
<g>
</g>
<g>
</g>
<g>
</g>
<g>
</g>
<g>
</g>
<g>
</g>
<g>
</g>
<g>
</g>
<g>
</g>
</svg>
