<?xml version="1.0" encoding="utf-8"?>
<!-- Generator: Adobe Illustrator 16.0.0, SVG Export Plug-In . SVG Version: 6.00 Build 0)  -->
<!DOCTYPE svg PUBLIC "-//W3C//DTD SVG 1.1//EN" "http://www.w3.org/Graphics/SVG/1.1/DTD/svg11.dtd">
<svg version="1.1" id="Layer_1" xmlns="http://www.w3.org/2000/svg" xmlns:xlink="http://www.w3.org/1999/xlink" x="0px" y="0px"
	 width="160px" height="94px" viewBox="0 0 160 94" enable-background="new 0 0 160 94" xml:space="preserve">
<g>
	<path fill-rule="evenodd" clip-rule="evenodd" fill="#333333" d="M4.914,42.294c0.959,0.459,1.461,1.586,1.731,1.313
		c0.258-0.262,0.621-1.21,1.9-2.494c2.679-2.691,7.733-6.586,13.611-6.781c7.013-0.233,12.426,6.445,13.098,10.199
		c0.085-0.039,3.498-3.441,4.083-3.982c3.038-2.799,9.515-6.679,14.336-6.357c0.995,0.067,2.33,0.609,3.372,1.736
		c1.335,1.442,2.339,3.643,3.105,4.879c0.796,1.29,0.78,1.198,2.216,1.014c3.773-0.483,15.411-2.241,15.566-2.505l0.384-0.653
		c0.01-0.018-1.386-7.063-1.207-13.198c0.131-4.553,1.189-8.028,2.964-11.164c5.646-9.979,17.058-13.838,27.963-13.458
		c7.361,0.257,14.286,2.564,17.839,7.165c0.365,0.474,0.926,1.158,1.168,1.544c0.612,0.983,1.156,1.986,0.982,3.148
		c-0.106,0.707-0.487,1.636-0.828,2.189c-0.249,0.401-0.737,1.007-1.021,1.194c-0.314,0.206-0.572-0.489-1.021-1.109
		c-0.56-0.774-1.716-1.945-2.049-2.27c-1.263-1.223-2.616-2.075-4.287-2.947c-3.721-1.939-7.419-3.219-11.89-3.36
		c-5.029-0.157-10.092,0.833-14.357,3.637c-3.731,2.451-7.271,8.306-7.841,12.729c-0.333,2.584-0.327,6.091-0.292,8.944
		c0.045,3.642,0.25,6.396,1.061,6.696c0.135,0.049,12.787-1.895,21.676-2.988c10.371-1.276,21.115-1.81,31.551-2
		c2.672-0.049,4.762-0.185,7.014-0.149c0.994,0.015,1.668,0.184,1.99,0.4c0.34,0.228,0.283,0.533-0.635,1.723
		c-0.415,0.535-2.055,0.415-2.165,0.699l-0.39,1.291c-0.033,0.108-15.486,1.171-17.129,1.33c-10.07,0.974-20.412,2.356-30.373,4.187
		c-5.252,0.965-8.957,1.903-9.326,2.642c-0.768,1.537,2.449,6.029,3.257,7.296c1.276,2.001,2.058,3.761,1.622,5.048
		c-2.369,6.991-11.865-12.166-12.969-12.283c-2.607-0.275-12.738,2.04-15.561,3.057c-2.962,1.068-1.882,2.235-2.256,4.456
		c-1.206,7.15-8.911,6.643-8.968,2.535c-0.016-1.102,0.421-2.271,0.772-3.6c0.498-1.876,0.954-3.905,0.819-5.091
		c-0.202-1.768-1.375-4.798-2.899-6.334c-0.998-1.007-2.413-1.145-3.782-0.755c-1.309,0.373-2.703,1.255-3.863,2.349
		c-2.724,2.567-4.998,6.696-6.445,9.306c-1.359,2.448-2.083,5.05-3.653,6.553c-1.439,1.377-2.561,1.639-4.591,1.3
		c-0.846-0.142-1.972-0.356-2.461-1.077c-1.22-1.797-0.292-3.365,0.607-5.625c0.572-1.432,1.158-3.434,1.021-4.961
		c-0.173-1.948-2.415-5.352-4.059-6.632c-1.385-1.078-2.904-1.35-4.205-1.324c-2.249,0.043-4.377,1.109-5.933,2.929
		c-1.352,1.58-3.215,6.202-3.971,8.187c-0.278,0.73-0.618,1.475-1.004,2.199c-1.16,2.174-2.22,4.061-3.884,5.088
		c-1.292,0.8-1.525,0.523-1.955,0.022C1.869,56.45,1.196,45.554,1.802,43.58C2.188,42.322,3.972,41.845,4.914,42.294z"/>
	<path fill-rule="evenodd" clip-rule="evenodd" fill="#BED22F" d="M157.471,32.476c1.527,1.561,1.07,2.814-0.307,4.098
		c-0.65,0.606-1.641,1.189-2.736,1.452c-1.998,0.478-4.562,0.02-5.301-0.992c-0.436-0.593-0.057-1.48,0.523-2.307
		c0.758-1.079,2.145-2.185,3.334-2.838C154.532,31.04,155.963,30.938,157.471,32.476z"/>
	<path fill-rule="evenodd" clip-rule="evenodd" fill="#333333" d="M17.104,79.497h-2.047V73.27c0-0.59-0.225-1.085-0.67-1.485
		c-0.443-0.4-0.992-0.598-1.64-0.598c-0.66,0-1.225,0.236-1.69,0.707c-0.461,0.465-0.693,1.055-0.693,1.77v5.834H8.314V73.27
		c0-0.59-0.225-1.085-0.668-1.485c-0.444-0.4-0.993-0.598-1.64-0.598c-0.661,0-1.227,0.23-1.69,0.688
		c-0.461,0.463-0.694,1.057-0.694,1.788v5.834H1.574V69.442h2.047v0.887h0.055c0.577-0.746,1.354-1.121,2.334-1.121
		c1.432,0,2.558,0.502,3.38,1.512H9.47c0.839-1.01,1.936-1.512,3.281-1.512c1.205,0,2.234,0.399,3.082,1.2
		c0.848,0.796,1.271,1.753,1.271,2.861V79.497L17.104,79.497z M29.43,79.497h-2.047V78.64c-0.017-0.021-0.033-0.021-0.053,0
		c-0.577,0.746-1.389,1.117-2.438,1.117c-1.488,0-2.753-0.511-3.801-1.537c-1.05-1.023-1.574-2.266-1.574-3.726
		c0-1.456,0.528-2.704,1.587-3.749c1.059-1.043,2.321-1.562,3.792-1.562c1.57,0,3.086,0.451,4.535,1.354V79.497L29.43,79.497z
		 M27.383,76.763v-4.898c-0.752-0.521-1.582-0.779-2.492-0.779c-0.872,0-1.653,0.332-2.347,1.002
		c-0.689,0.668-1.036,1.463-1.036,2.384c0,0.902,0.342,1.694,1.023,2.37c0.681,0.678,1.47,1.016,2.359,1.016
		C25.905,77.856,26.736,77.493,27.383,76.763L27.383,76.763z M36.671,71.163c-0.752,0-1.371,0.23-1.849,0.688
		c-0.482,0.463-0.723,1.064-0.723,1.812v5.834h-2.048V69.442h2.048v0.887h0.054c0.627-0.746,1.467-1.121,2.518-1.121V71.163
		L36.671,71.163z M40.528,66.345l-0.002,1.889H38.48v-0.944L40.528,66.345L40.528,66.345z M40.528,79.497h-2.046V69.442h2.046
		V79.497L40.528,79.497z M45.04,79.497h-2.048V62.905h2.048V79.497L45.04,79.497z M49.549,66.346v1.888h-2.048v-1.889L49.549,66.346
		L49.549,66.346z M49.549,79.497h-2.047V69.442h2.047V79.497L49.549,79.497z M61.453,79.497h-2.048V78.64
		c-0.017-0.021-0.033-0.021-0.053,0c-0.578,0.746-1.387,1.117-2.438,1.117c-1.487,0-2.754-0.511-3.801-1.537
		c-1.05-1.023-1.574-2.266-1.574-3.726c0-1.456,0.528-2.704,1.587-3.749c1.06-1.043,2.321-1.562,3.792-1.562
		c1.57,0,3.086,0.451,4.535,1.354V79.497L61.453,79.497z M59.405,76.763v-4.898c-0.751-0.521-1.582-0.779-2.491-0.779
		c-0.873,0-1.653,0.332-2.348,1.002c-0.688,0.668-1.034,1.463-1.034,2.384c0,0.902,0.341,1.694,1.022,2.37
		c0.681,0.678,1.47,1.016,2.359,1.016C57.928,77.856,58.758,77.493,59.405,76.763z"/>
	<path fill-rule="evenodd" clip-rule="evenodd" fill="#BED22F" d="M71.184,63.461l-1.104,1.618
		c-0.419-0.211-0.872-0.313-1.363-0.313c-0.719,0-1.312,0.21-1.782,0.626c-0.544,0.482-0.814,1.134-0.814,1.951v2.214h3.88v1.901
		h-3.88v8.154h-2.047V67.215c0-1.266,0.475-2.326,1.416-3.181c0.894-0.795,1.977-1.195,3.253-1.195
		C69.602,62.839,70.413,63.046,71.184,63.461L71.184,63.461z M80.896,74.584c0-1.46-0.528-2.706-1.588-3.736
		c-1.059-1.034-2.33-1.551-3.816-1.551c-1.487,0-2.754,0.513-3.805,1.538c-1.05,1.023-1.573,2.272-1.573,3.749
		c0,1.478,0.523,2.726,1.573,3.749c1.051,1.027,2.318,1.538,3.805,1.538c1.486,0,2.757-0.515,3.816-1.55
		C80.368,77.29,80.896,76.044,80.896,74.584L80.896,74.584z M78.956,74.584c0,0.903-0.344,1.694-1.039,2.372
		c-0.688,0.676-1.499,1.014-2.424,1.014c-0.91,0-1.703-0.338-2.376-1.014c-0.673-0.678-1.009-1.469-1.009-2.372
		s0.336-1.694,1.009-2.371c0.673-0.676,1.466-1.015,2.376-1.015c0.925,0,1.736,0.339,2.424,1.015
		C78.612,72.89,78.956,73.681,78.956,74.584L78.956,74.584z M92.098,79.612h-2.049v-5.836c0-0.729-0.241-1.328-0.722-1.794
		c-0.478-0.471-1.089-0.705-1.819-0.705c-0.752,0-1.371,0.23-1.85,0.688c-0.48,0.461-0.722,1.064-0.722,1.811v5.836h-2.048V69.557
		h2.048v0.888h0.055c0.628-0.747,1.466-1.122,2.517-1.122c1.258,0,2.338,0.421,3.24,1.261c0.9,0.846,1.35,1.856,1.35,3.035V79.612
		L92.098,79.612z M101.691,79.22c-0.789,0.417-1.62,0.627-2.491,0.627c-1.242,0-2.313-0.396-3.216-1.184
		c-0.9-0.792-1.35-1.803-1.35-3.035v-7.113h2.047v1.042h4.037v1.901h-4.037v4.013c0,0.797,0.254,1.423,0.76,1.877
		c0.458,0.396,1.023,0.599,1.709,0.599c0.506,0,0.976-0.124,1.412-0.369L101.691,79.22L101.691,79.22z M113.263,75.054h-8.789
		c0.158,0.852,0.558,1.551,1.197,2.096c0.636,0.549,1.356,0.82,2.163,0.82c0.856,0,1.633-0.304,2.334-0.91l1.312,1.405
		c-1.066,0.938-2.284,1.406-3.646,1.406c-1.486,0-2.753-0.511-3.803-1.538c-1.053-1.023-1.574-2.271-1.574-3.749
		c0-1.477,0.521-2.726,1.574-3.749c1.05-1.025,2.316-1.538,3.803-1.538c1.537,0,2.824,0.521,3.855,1.563
		C112.757,71.952,113.279,73.351,113.263,75.054L113.263,75.054z M110.982,73.231c-0.719-1.373-1.748-2.057-3.098-2.057
		c-0.682,0-1.312,0.193-1.903,0.584c-0.585,0.393-1.009,0.908-1.271,1.552h6.244L110.982,73.231L110.982,73.231z M124.203,79.612
		h-2.048v-5.836c0-0.729-0.24-1.328-0.722-1.794c-0.479-0.471-1.089-0.705-1.82-0.705c-0.75,0-1.371,0.23-1.849,0.688
		c-0.481,0.461-0.722,1.064-0.722,1.811v5.836h-2.048V69.557h2.048v0.888h0.055c0.627-0.747,1.465-1.122,2.516-1.122
		c1.26,0,2.339,0.421,3.24,1.261c0.9,0.846,1.35,1.856,1.35,3.035V79.612L124.203,79.612z M137.078,75.054h-8.789
		c0.158,0.852,0.557,1.551,1.197,2.096c0.635,0.549,1.357,0.82,2.163,0.82c0.855,0,1.633-0.304,2.335-0.91l1.312,1.405
		c-1.068,0.938-2.285,1.406-3.647,1.406c-1.486,0-2.753-0.511-3.804-1.538c-1.051-1.023-1.574-2.271-1.574-3.749
		c0-1.477,0.523-2.726,1.574-3.749c1.051-1.025,2.317-1.538,3.804-1.538c1.537,0,2.825,0.521,3.854,1.563
		C136.572,71.952,137.096,73.351,137.078,75.054L137.078,75.054z M134.798,73.231c-0.718-1.373-1.747-2.057-3.098-2.057
		c-0.682,0-1.312,0.193-1.903,0.584c-0.584,0.393-1.009,0.908-1.27,1.552h6.242L134.798,73.231L134.798,73.231z M140.857,79.612
		h-2.047V63.021h2.047V79.612L140.857,79.612z M145.368,79.612h-2.046V63.021h2.046V79.612L145.368,79.612z M158.165,75.054h-8.789
		c0.158,0.852,0.558,1.551,1.197,2.096c0.635,0.549,1.357,0.82,2.164,0.82c0.854,0,1.632-0.304,2.334-0.91l1.312,1.405
		c-1.066,0.938-2.284,1.406-3.646,1.406c-1.487,0-2.755-0.511-3.805-1.538c-1.05-1.023-1.575-2.271-1.575-3.749
		c0-1.477,0.525-2.726,1.575-3.749c1.05-1.025,2.317-1.538,3.805-1.538c1.536,0,2.823,0.521,3.854,1.563
		C157.658,71.952,158.182,73.351,158.165,75.054L158.165,75.054z M155.885,73.231c-0.718-1.373-1.748-2.057-3.098-2.057
		c-0.682,0-1.312,0.193-1.902,0.584c-0.586,0.393-1.011,0.908-1.271,1.552h6.243L155.885,73.231z"/>
	<path fill-rule="evenodd" clip-rule="evenodd" fill="#333333" d="M6.253,90.472l-0.752,0.33l-0.403-1.033H2.873l-0.4,1.033
		l-0.753-0.33l2.046-5.215h0.441L6.253,90.472L6.253,90.472z M4.778,88.926l-0.781-2.024h-0.02l-0.783,2.024l0.01,0.021h1.564
		L4.778,88.926L4.778,88.926z M13.619,89.99l-0.251,0.802c-0.943-0.275-1.765-0.865-2.467-1.775l0.082-0.161
		c0.366-0.006,0.688-0.159,0.966-0.456c0.278-0.299,0.417-0.634,0.417-1.008c0-0.308-0.114-0.586-0.341-0.836
		c-0.227-0.252-0.488-0.377-0.781-0.377H10.53v4.574H9.657v-5.396h1.584c0.542,0,1.005,0.201,1.39,0.606s0.576,0.891,0.576,1.46
		c0,0.756-0.326,1.356-0.982,1.806l-0.009,0.019c0.178,0.18,0.414,0.34,0.701,0.482C13.177,89.862,13.411,89.948,13.619,89.99
		L13.619,89.99z M22.74,92.365l-0.371,0.813c-0.635,0.012-1.179-0.133-1.636-0.441c-0.361-0.288-0.723-0.572-1.083-0.854
		c-0.454-0.307-1.007-0.457-1.655-0.451l0.361-0.782c0.047,0,0.124,0,0.232,0c0.105,0,0.176,0,0.209,0V90.63
		c-0.542-0.146-0.996-0.452-1.364-0.92c-0.388-0.494-0.582-1.048-0.582-1.66c0-0.749,0.268-1.385,0.802-1.913
		c0.536-0.527,1.178-0.79,1.927-0.79c0.749,0,1.391,0.263,1.926,0.792c0.536,0.528,0.801,1.167,0.801,1.915
		c0,0.75-0.266,1.389-0.801,1.915c-0.536,0.528-1.174,0.793-1.917,0.793c-0.088,0-0.175,0-0.27,0v0.021
		c0.328,0.092,0.672,0.288,1.033,0.588c0.448,0.371,0.758,0.6,0.933,0.688C21.693,92.277,22.179,92.378,22.74,92.365L22.74,92.365z
		 M21.417,88.054c0-0.508-0.18-0.941-0.537-1.299c-0.358-0.357-0.792-0.535-1.299-0.535c-0.508,0-0.942,0.178-1.3,0.535
		c-0.356,0.357-0.537,0.791-0.537,1.299c0,0.51,0.18,0.942,0.537,1.299c0.358,0.357,0.792,0.537,1.3,0.537
		c0.507,0,0.941-0.18,1.299-0.537C21.237,88.996,21.417,88.563,21.417,88.054L21.417,88.054z M30.218,88.687
		c0,0.581-0.208,1.086-0.622,1.515c-0.416,0.427-0.927,0.642-1.535,0.642c-0.608,0-1.119-0.215-1.535-0.642
		c-0.414-0.429-0.622-0.934-0.622-1.515v-3.33h0.874v3.33c0,0.348,0.123,0.648,0.372,0.903c0.246,0.254,0.551,0.382,0.912,0.382
		c0.354,0,0.656-0.128,0.906-0.382c0.251-0.255,0.377-0.556,0.377-0.903v-3.33h0.873V88.687L30.218,88.687z M34.996,90.753h-0.873
		v-5.396h0.873V90.753L34.996,90.753z M42.432,86.179h-1.604v4.574h-0.873v-4.574h-1.595v-0.822h4.072V86.179L42.432,86.179z
		 M48.754,87.753h-2.015v2.176h1.733v0.824h-2.606v-5.396h2.606v0.822h-1.733v0.752h2.015V87.753L48.754,87.753z M55.84,86.179
		h-1.604v4.574h-0.873v-4.574h-1.595v-0.822h4.071V86.179L55.84,86.179z M63.438,88.687c0,0.581-0.208,1.086-0.622,1.515
		c-0.416,0.427-0.926,0.642-1.534,0.642s-1.12-0.215-1.534-0.642c-0.415-0.429-0.624-0.934-0.624-1.515v-3.33h0.873v3.33
		c0,0.348,0.125,0.648,0.372,0.903c0.246,0.254,0.551,0.382,0.912,0.382c0.354,0,0.656-0.128,0.907-0.382
		c0.25-0.255,0.375-0.556,0.375-0.903v-3.33h0.874V88.687L63.438,88.687z M71.304,89.99l-0.25,0.802
		c-0.943-0.275-1.767-0.865-2.468-1.775l0.081-0.161c0.367-0.006,0.689-0.159,0.967-0.456c0.278-0.299,0.415-0.634,0.415-1.008
		c0-0.308-0.114-0.586-0.341-0.836c-0.227-0.252-0.487-0.377-0.78-0.377h-0.713v4.574h-0.873v-5.396h1.586
		c0.54,0,1.004,0.201,1.389,0.606c0.384,0.405,0.576,0.891,0.576,1.46c0,0.756-0.328,1.356-0.983,1.806l-0.01,0.019
		c0.18,0.18,0.415,0.34,0.703,0.482C70.863,89.862,71.096,89.948,71.304,89.99L71.304,89.99z M78.772,90.472l-0.752,0.33
		l-0.403-1.033h-2.226l-0.4,1.033l-0.753-0.33l2.046-5.215h0.441L78.772,90.472L78.772,90.472z M77.297,88.926l-0.782-2.024h-0.02
		l-0.785,2.024l0.012,0.021h1.563L77.297,88.926L77.297,88.926z M89.26,89.018c0,0.448-0.178,0.858-0.533,1.233
		c-0.381,0.389-0.834,0.582-1.361,0.582c-0.295,0-0.59-0.066-0.883-0.2l0.13-0.813c0.247,0.127,0.484,0.191,0.711,0.191
		c0.315,0,0.571-0.105,0.774-0.312c0.199-0.207,0.299-0.435,0.299-0.682c0-0.287-0.15-0.557-0.451-0.812
		c-0.273-0.22-0.551-0.44-0.832-0.66c-0.3-0.295-0.451-0.627-0.451-0.995c0-0.421,0.141-0.745,0.422-0.973
		c0.247-0.208,0.571-0.311,0.974-0.311c0.255,0,0.507,0.043,0.763,0.13l-0.121,0.812c-0.216-0.066-0.414-0.099-0.602-0.099
		c-0.374,0-0.562,0.153-0.562,0.46c0,0.154,0.151,0.344,0.451,0.572c0.428,0.334,0.7,0.571,0.821,0.713
		C89.107,88.195,89.26,88.583,89.26,89.018L89.26,89.018z M96.978,88.687c0,0.581-0.207,1.086-0.622,1.515
		c-0.415,0.427-0.927,0.642-1.535,0.642c-0.607,0-1.119-0.215-1.533-0.642c-0.415-0.429-0.623-0.934-0.623-1.515v-3.33h0.873v3.33
		c0,0.348,0.124,0.648,0.373,0.903c0.246,0.254,0.551,0.382,0.91,0.382c0.355,0,0.657-0.128,0.907-0.382
		c0.251-0.255,0.377-0.556,0.377-0.903v-3.33h0.873V88.687L96.978,88.687z M103.169,89.018c0,0.448-0.179,0.858-0.532,1.233
		c-0.381,0.389-0.836,0.582-1.363,0.582c-0.295,0-0.588-0.066-0.882-0.2l0.13-0.813c0.247,0.127,0.484,0.191,0.711,0.191
		c0.314,0,0.572-0.105,0.773-0.312c0.2-0.207,0.301-0.435,0.301-0.682c0-0.287-0.151-0.557-0.452-0.812
		c-0.274-0.22-0.551-0.44-0.831-0.66c-0.301-0.295-0.451-0.627-0.451-0.995c0-0.421,0.141-0.745,0.421-0.973
		c0.247-0.208,0.571-0.311,0.974-0.311c0.254,0,0.508,0.043,0.762,0.13l-0.12,0.812c-0.215-0.066-0.415-0.099-0.603-0.099
		c-0.373,0-0.561,0.153-0.561,0.46c0,0.154,0.152,0.344,0.451,0.572c0.428,0.334,0.7,0.571,0.821,0.713
		C103.018,88.195,103.169,88.583,103.169,89.018L103.169,89.018z M109.904,86.179h-1.604v4.574h-0.875v-4.574h-1.593v-0.822h4.071
		V86.179L109.904,86.179z M116.227,87.753h-2.016v2.176h1.734v0.824h-2.607v-5.396h2.607v0.822h-1.734v0.752h2.016V87.753
		L116.227,87.753z M124.527,90.753h-0.532l-3.169-3.742l-0.02,0.021v3.722h-0.875v-5.487h0.533l3.168,3.741l0.021-0.021v-3.63h0.873
		V90.753L124.527,90.753z M131.961,86.179h-1.603v4.574h-0.874v-4.574h-1.594v-0.822h4.07V86.179L131.961,86.179z M137.232,83.722
		l-1.334,1.132l-0.371-0.382l1.133-1.322L137.232,83.722L137.232,83.722z M138.777,90.472l-0.754,0.33l-0.4-1.033h-2.226l-0.4,1.033
		l-0.753-0.33l2.045-5.215h0.441L138.777,90.472L138.777,90.472z M137.303,88.926l-0.783-2.024h-0.02l-0.783,2.024l0.012,0.021
		h1.563L137.303,88.926L137.303,88.926z M145.763,85.606l-2.048,5.215h-0.441l-2.045-5.215l0.754-0.33l1.502,3.9h0.021l1.505-3.9
		L145.763,85.606L145.763,85.606z M152.055,87.753h-2.017v2.176h1.733v0.824h-2.606v-5.396h2.606v0.822h-1.733v0.752h2.017V87.753
		L152.055,87.753z M158.366,90.753h-2.606v-5.396h0.873v4.572h1.733V90.753z"/>
</g>
<g>
</g>
<g>
</g>
<g>
</g>
<g>
</g>
<g>
</g>
<g>
</g>
<g>
</g>
<g>
</g>
<g>
</g>
<g>
</g>
<g>
</g>
<g>
</g>
<g>
</g>
<g>
</g>
<g>
</g>
</svg>
