<?xml version="1.0" encoding="utf-8"?>
<!-- Generator: Adobe Illustrator 16.0.0, SVG Export Plug-In . SVG Version: 6.00 Build 0)  -->
<!DOCTYPE svg PUBLIC "-//W3C//DTD SVG 1.1//EN" "http://www.w3.org/Graphics/SVG/1.1/DTD/svg11.dtd">
<svg version="1.1" id="Layer_1" xmlns="http://www.w3.org/2000/svg" xmlns:xlink="http://www.w3.org/1999/xlink" x="0px" y="0px"
	 width="50px" height="20px" viewBox="0 0 50 20" enable-background="new 0 0 50 20" xml:space="preserve">
<g>
	
		<path fill-rule="evenodd" clip-rule="evenodd" fill="#FFFFFF" stroke="#FFFFFF" stroke-width="0.1417" stroke-miterlimit="22.9256" d="
		M2.011,13.71c0.294,0.141,0.447,0.485,0.529,0.401c0.08-0.079,0.19-0.369,0.583-0.763c0.82-0.823,2.367-2.017,4.167-2.077
		c2.146-0.071,3.804,1.974,4.009,3.123c0.026-0.012,1.071-1.053,1.25-1.219c0.929-0.857,2.912-2.045,4.388-1.946
		c0.305,0.02,0.713,0.186,1.033,0.531c0.408,0.442,0.716,1.116,0.95,1.494c0.245,0.396,0.239,0.367,0.679,0.311
		c1.155-0.147,4.717-0.687,4.765-0.767l0.117-0.2c0.003-0.006-0.424-2.163-0.37-4.041c0.041-1.395,0.364-2.457,0.907-3.418
		c1.729-3.055,5.223-4.235,8.561-4.119c2.253,0.079,4.373,0.785,5.461,2.193c0.111,0.145,0.283,0.354,0.357,0.473
		c0.188,0.301,0.354,0.607,0.301,0.963c-0.033,0.217-0.149,0.502-0.254,0.671c-0.076,0.123-0.226,0.309-0.312,0.366
		c-0.096,0.062-0.176-0.15-0.312-0.34c-0.171-0.237-0.525-0.596-0.627-0.695c-0.387-0.375-0.801-0.635-1.312-0.902
		c-1.139-0.594-2.271-0.984-3.64-1.028c-1.539-0.048-3.089,0.255-4.396,1.114c-1.142,0.75-2.226,2.542-2.399,3.896
		c-0.103,0.79-0.101,1.863-0.089,2.737c0.014,1.115,0.076,1.958,0.324,2.05c0.041,0.015,3.914-0.581,6.635-0.915
		c3.176-0.392,6.465-0.555,9.658-0.613c0.818-0.015,1.457-0.057,2.147-0.045c0.304,0.004,0.511,0.056,0.608,0.122
		c0.104,0.069,0.088,0.163-0.193,0.527c-0.127,0.163-0.629,0.127-0.664,0.214l-0.118,0.396c-0.011,0.032-4.741,0.358-5.243,0.407
		c-3.083,0.298-6.248,0.721-9.298,1.281c-1.608,0.295-2.742,0.582-2.855,0.809c-0.234,0.471,0.749,1.846,0.997,2.234
		c0.392,0.612,0.63,1.15,0.496,1.545c-0.725,2.14-3.631-3.725-3.97-3.76c-0.798-0.085-3.899,0.624-4.763,0.936
		c-0.907,0.327-0.576,0.684-0.691,1.363c-0.369,2.189-2.728,2.034-2.746,0.777c-0.005-0.338,0.129-0.695,0.237-1.103
		c0.152-0.574,0.292-1.195,0.25-1.559c-0.062-0.541-0.42-1.469-0.887-1.939c-0.306-0.308-0.739-0.351-1.158-0.23
		c-0.401,0.114-0.827,0.384-1.183,0.72c-0.834,0.785-1.53,2.049-1.973,2.848c-0.416,0.75-0.637,1.546-1.118,2.006
		c-0.44,0.422-0.784,0.502-1.405,0.398c-0.259-0.043-0.604-0.109-0.753-0.33c-0.374-0.55-0.089-1.029,0.186-1.722
		c0.175-0.438,0.354-1.052,0.312-1.519c-0.053-0.597-0.739-1.639-1.242-2.03c-0.424-0.33-0.889-0.413-1.287-0.405
		c-0.689,0.013-1.34,0.339-1.816,0.896c-0.414,0.483-0.984,1.898-1.215,2.506c-0.085,0.223-0.189,0.451-0.308,0.673
		c-0.355,0.665-0.68,1.243-1.188,1.558c-0.396,0.245-0.467,0.16-0.599,0.007c-0.454-0.53-0.66-3.865-0.475-4.47
		C1.177,13.719,1.723,13.572,2.011,13.71z"/>
	
		<path fill-rule="evenodd" clip-rule="evenodd" fill="#BED22F" stroke="#BED22F" stroke-width="0.1417" stroke-miterlimit="22.9256" d="
		M48.71,10.704c0.469,0.478,0.329,0.862-0.093,1.255c-0.199,0.186-0.502,0.364-0.838,0.445c-0.61,0.146-1.396,0.007-1.622-0.304
		c-0.134-0.182-0.018-0.454,0.16-0.707c0.231-0.33,0.656-0.669,1.021-0.868C47.812,10.264,48.249,10.234,48.71,10.704z"/>
</g>
<g>
</g>
<g>
</g>
<g>
</g>
<g>
</g>
<g>
</g>
<g>
</g>
<g>
</g>
<g>
</g>
<g>
</g>
<g>
</g>
<g>
</g>
<g>
</g>
<g>
</g>
<g>
</g>
<g>
</g>
</svg>
